<svg width="24" height="20" viewBox="0 0 24 20" fill="none" xmlns="http://www.w3.org/2000/svg">
<path d="M6.70918 11.123L4.90918 11.123V19.1C4.90918 19.5971 5.31212 20 5.80918 20C6.30624 20 6.70918 19.5971 6.70918 19.1V11.123Z" fill="#8D71FF"/>
<path d="M7.67534 10.9755C7.80752 11.3681 7.59676 11.7984 7.19078 11.8807C6.51281 12.0179 5.81429 12.0373 5.12621 11.936C4.19004 11.7982 3.29973 11.441 2.528 10.8934C1.75626 10.3458 1.12497 9.62347 0.685696 8.78535C0.246418 7.94723 0.0116 7.01709 0.000418878 6.0709C-0.0107623 5.1247 0.20201 4.18928 0.621361 3.34101C1.04071 2.49274 1.65475 1.75569 2.41333 1.19003C3.17191 0.624376 4.05353 0.246161 4.98619 0.0862719C5.67168 -0.0312451 6.37046 -0.0283709 7.05149 0.0928529C7.45929 0.165442 7.68016 0.590714 7.55729 0.986286C7.43443 1.38186 7.01386 1.59618 6.60339 1.54064C6.15165 1.47951 5.69179 1.48719 5.23964 1.5647C4.54015 1.68462 3.87894 1.96828 3.31 2.39252C2.74106 2.81676 2.28053 3.36956 1.96602 4.00576C1.65151 4.64196 1.49193 5.34353 1.50031 6.05317C1.5087 6.76282 1.68481 7.46042 2.01427 8.08901C2.34373 8.7176 2.81719 9.25936 3.396 9.67004C3.9748 10.0807 4.64253 10.3487 5.34466 10.452C5.79852 10.5188 6.25843 10.5156 6.7086 10.4439C7.11764 10.3786 7.54316 10.583 7.67534 10.9755Z" fill="#8D71FF"/>
<path d="M5.84567 8.38887H5.27777C4.93888 8.38887 4.61388 8.25424 4.37425 8.01462C4.13462 7.77499 4 7.44998 4 7.1111C4 6.99813 4.04487 6.8898 4.12475 6.80992C4.20463 6.73005 4.31296 6.68517 4.42592 6.68517C4.53889 6.68517 4.64722 6.73005 4.7271 6.80992C4.80697 6.8898 4.85185 6.99813 4.85185 7.1111C4.85185 7.22406 4.89672 7.33239 4.9766 7.41227C5.05647 7.49215 5.16481 7.53702 5.27777 7.53702H5.84567C5.95863 7.53702 6.06697 7.49215 6.14684 7.41227C6.22672 7.33239 6.27159 7.22406 6.27159 7.1111V6.5432C6.27159 6.43024 6.22672 6.3219 6.14684 6.24202C6.06697 6.16215 5.95863 6.11727 5.84567 6.11727H5.27777C4.93888 6.11727 4.61388 5.98265 4.37425 5.74302C4.13462 5.5034 4 5.17839 4 4.8395V4.27161C4 3.93272 4.13462 3.60771 4.37425 3.36809C4.61388 3.12846 4.93888 2.99384 5.27777 2.99384H5.84567C6.18455 2.99384 6.50956 3.12846 6.74919 3.36809C6.98882 3.60771 7.12344 3.93272 7.12344 4.27161C7.12344 4.38457 7.07857 4.4929 6.99869 4.57278C6.91881 4.65266 6.81048 4.69753 6.69752 4.69753C6.58455 4.69753 6.47622 4.65266 6.39634 4.57278C6.31647 4.4929 6.27159 4.38457 6.27159 4.27161C6.27159 4.15864 6.22672 4.05031 6.14684 3.97043C6.06697 3.89056 5.95863 3.84568 5.84567 3.84568H5.27777C5.16481 3.84568 5.05647 3.89056 4.9766 3.97043C4.89672 4.05031 4.85185 4.15864 4.85185 4.27161V4.8395C4.85185 4.95247 4.89672 5.0608 4.9766 5.14068C5.05647 5.22055 5.16481 5.26543 5.27777 5.26543H5.84567C6.18455 5.26543 6.50956 5.40005 6.74919 5.63968C6.98882 5.87931 7.12344 6.20431 7.12344 6.5432V7.1111C7.12344 7.44998 6.98882 7.77499 6.74919 8.01462C6.50956 8.25424 6.18455 8.38887 5.84567 8.38887Z" fill="#8D71FF"/>
<path d="M5.56167 3.84567C5.4487 3.84567 5.34037 3.80079 5.26049 3.72092C5.18062 3.64104 5.13574 3.53271 5.13574 3.41975V2.42592C5.13574 2.31296 5.18062 2.20463 5.26049 2.12475C5.34037 2.04487 5.4487 2 5.56167 2C5.67463 2 5.78296 2.04487 5.86284 2.12475C5.94272 2.20463 5.98759 2.31296 5.98759 2.42592V3.41975C5.98759 3.53271 5.94272 3.64104 5.86284 3.72092C5.78296 3.80079 5.67463 3.84567 5.56167 3.84567Z" fill="#8D71FF"/>
<path d="M5.56167 9.38272C5.4487 9.38272 5.34037 9.33784 5.26049 9.25797C5.18062 9.17809 5.13574 9.06976 5.13574 8.95679V7.96297C5.13574 7.85001 5.18062 7.74167 5.26049 7.6618C5.34037 7.58192 5.4487 7.53705 5.56167 7.53705C5.67463 7.53705 5.78296 7.58192 5.86284 7.6618C5.94272 7.74167 5.98759 7.85001 5.98759 7.96297V8.95679C5.98759 9.06976 5.94272 9.17809 5.86284 9.25797C5.78296 9.33784 5.67463 9.38272 5.56167 9.38272Z" fill="#8D71FF"/>
<path d="M17.2908 11.123L19.0908 11.123V19.1C19.0908 19.5971 18.6879 20 18.1908 20C17.6938 20 17.2908 19.5971 17.2908 19.1V11.123Z" fill="#8D71FF"/>
<path d="M16.3247 10.9755C16.1925 11.3681 16.4032 11.7984 16.8092 11.8807C17.4872 12.0179 18.1857 12.0373 18.8738 11.936C19.81 11.7982 20.7003 11.441 21.472 10.8934C22.2437 10.3458 22.875 9.62347 23.3143 8.78535C23.7536 7.94723 23.9884 7.01709 23.9996 6.0709C24.0108 5.1247 23.798 4.18928 23.3786 3.34101C22.9593 2.49274 22.3453 1.75569 21.5867 1.19003C20.8281 0.624376 19.9465 0.246161 19.0138 0.0862719C18.3283 -0.0312451 17.6295 -0.0283709 16.9485 0.0928529C16.5407 0.165442 16.3198 0.590714 16.4427 0.986286C16.5656 1.38186 16.9861 1.59618 17.3966 1.54064C17.8483 1.47951 18.3082 1.48719 18.7604 1.5647C19.4599 1.68462 20.1211 1.96828 20.69 2.39252C21.2589 2.81676 21.7195 3.36956 22.034 4.00576C22.3485 4.64196 22.5081 5.34353 22.4997 6.05317C22.4913 6.76282 22.3152 7.46042 21.9857 8.08901C21.6563 8.7176 21.1828 9.25936 20.604 9.67004C20.0252 10.0807 19.3575 10.3487 18.6553 10.452C18.2015 10.5188 17.7416 10.5156 17.2914 10.4439C16.8824 10.3786 16.4568 10.583 16.3247 10.9755Z" fill="#8D71FF"/>
<path d="M18.7221 8.38887H18.1542C17.8153 8.38887 17.4903 8.25424 17.2507 8.01462C17.0111 7.77499 16.8765 7.44998 16.8765 7.1111C16.8765 6.99813 16.9213 6.8898 17.0012 6.80992C17.0811 6.73005 17.1894 6.68517 17.3024 6.68517C17.4154 6.68517 17.5237 6.73005 17.6036 6.80992C17.6834 6.8898 17.7283 6.99813 17.7283 7.1111C17.7283 7.22406 17.7732 7.33239 17.8531 7.41227C17.9329 7.49215 18.0413 7.53702 18.1542 7.53702H18.7221C18.8351 7.53702 18.9434 7.49215 19.0233 7.41227C19.1032 7.33239 19.1481 7.22406 19.1481 7.1111V6.5432C19.1481 6.43024 19.1032 6.3219 19.0233 6.24202C18.9434 6.16215 18.8351 6.11727 18.7221 6.11727H18.1542C17.8153 6.11727 17.4903 5.98265 17.2507 5.74302C17.0111 5.5034 16.8765 5.17839 16.8765 4.8395V4.27161C16.8765 3.93272 17.0111 3.60771 17.2507 3.36809C17.4903 3.12846 17.8153 2.99384 18.1542 2.99384H18.7221C19.061 2.99384 19.386 3.12846 19.6257 3.36809C19.8653 3.60771 19.9999 3.93272 19.9999 4.27161C19.9999 4.38457 19.955 4.4929 19.8752 4.57278C19.7953 4.65266 19.6869 4.69753 19.574 4.69753C19.461 4.69753 19.3527 4.65266 19.2728 4.57278C19.1929 4.4929 19.1481 4.38457 19.1481 4.27161C19.1481 4.15864 19.1032 4.05031 19.0233 3.97043C18.9434 3.89056 18.8351 3.84568 18.7221 3.84568H18.1542C18.0413 3.84568 17.9329 3.89056 17.8531 3.97043C17.7732 4.05031 17.7283 4.15864 17.7283 4.27161V4.8395C17.7283 4.95247 17.7732 5.0608 17.8531 5.14068C17.9329 5.22055 18.0413 5.26543 18.1542 5.26543H18.7221C19.061 5.26543 19.386 5.40005 19.6257 5.63968C19.8653 5.87931 19.9999 6.20431 19.9999 6.5432V7.1111C19.9999 7.44998 19.8653 7.77499 19.6257 8.01462C19.386 8.25424 19.061 8.38887 18.7221 8.38887Z" fill="#8D71FF"/>
<path d="M18.4381 3.84567C18.3252 3.84567 18.2168 3.80079 18.137 3.72092C18.0571 3.64104 18.0122 3.53271 18.0122 3.41975V2.42592C18.0122 2.31296 18.0571 2.20463 18.137 2.12475C18.2168 2.04487 18.3252 2 18.4381 2C18.5511 2 18.6594 2.04487 18.7393 2.12475C18.8192 2.20463 18.8641 2.31296 18.8641 2.42592V3.41975C18.8641 3.53271 18.8192 3.64104 18.7393 3.72092C18.6594 3.80079 18.5511 3.84567 18.4381 3.84567Z" fill="#8D71FF"/>
<path d="M18.4381 9.38272C18.3252 9.38272 18.2168 9.33784 18.137 9.25797C18.0571 9.17809 18.0122 9.06976 18.0122 8.95679V7.96297C18.0122 7.85001 18.0571 7.74167 18.137 7.6618C18.2168 7.58192 18.3252 7.53705 18.4381 7.53705C18.5511 7.53705 18.6594 7.58192 18.7393 7.6618C18.8192 7.74167 18.8641 7.85001 18.8641 7.96297V8.95679C18.8641 9.06976 18.8192 9.17809 18.7393 9.25797C18.6594 9.33784 18.5511 9.38272 18.4381 9.38272Z" fill="#8D71FF"/>
<path d="M12.6405 19.1407L12.7025 10.7214C12.7062 10.2236 12.3037 9.81815 11.8059 9.81815C11.3106 9.81815 10.9092 10.2196 10.9092 10.7148V19.1343C10.9092 19.6124 11.2968 20 11.7749 20C12.2505 20 12.637 19.6163 12.6405 19.1407Z" fill="#8D71FF"/>
<rect x="6" width="12" height="12" rx="6" fill="#8D71FF"/>
<path d="M12.4272 8.57066H11.8593C11.5204 8.57066 11.1954 8.43604 10.9558 8.19641C10.7162 7.95678 10.5815 7.63177 10.5815 7.29289C10.5815 7.17993 10.6264 7.07159 10.7063 6.99172C10.7862 6.91184 10.8945 6.86697 11.0075 6.86697C11.1204 6.86697 11.2288 6.91184 11.3086 6.99172C11.3885 7.07159 11.4334 7.17993 11.4334 7.29289C11.4334 7.40585 11.4783 7.51419 11.5581 7.59406C11.638 7.67394 11.7464 7.71881 11.8593 7.71881H12.4272C12.5402 7.71881 12.6485 7.67394 12.7284 7.59406C12.8083 7.51419 12.8531 7.40585 12.8531 7.29289V6.72499C12.8531 6.61203 12.8083 6.50369 12.7284 6.42382C12.6485 6.34394 12.5402 6.29907 12.4272 6.29907H11.8593C11.5204 6.29907 11.1954 6.16445 10.9558 5.92482C10.7162 5.68519 10.5815 5.36018 10.5815 5.0213V4.4534C10.5815 4.11451 10.7162 3.78951 10.9558 3.54988C11.1954 3.31025 11.5204 3.17563 11.8593 3.17563H12.4272C12.7661 3.17563 13.0911 3.31025 13.3307 3.54988C13.5704 3.78951 13.705 4.11451 13.705 4.4534C13.705 4.56636 13.6601 4.6747 13.5802 4.75457C13.5004 4.83445 13.392 4.87932 13.2791 4.87932C13.1661 4.87932 13.0578 4.83445 12.9779 4.75457C12.898 4.6747 12.8531 4.56636 12.8531 4.4534C12.8531 4.34044 12.8083 4.2321 12.7284 4.15223C12.6485 4.07235 12.5402 4.02748 12.4272 4.02748H11.8593C11.7464 4.02748 11.638 4.07235 11.5581 4.15223C11.4783 4.2321 11.4334 4.34044 11.4334 4.4534V5.0213C11.4334 5.13426 11.4783 5.24259 11.5581 5.32247C11.638 5.40235 11.7464 5.44722 11.8593 5.44722H12.4272C12.7661 5.44722 13.0911 5.58184 13.3307 5.82147C13.5704 6.0611 13.705 6.38611 13.705 6.72499V7.29289C13.705 7.63177 13.5704 7.95678 13.3307 8.19641C13.0911 8.43604 12.7661 8.57066 12.4272 8.57066Z" fill="#121212"/>
<path d="M12.1432 4.02746C12.0302 4.02746 11.9219 3.98259 11.842 3.90271C11.7622 3.82284 11.7173 3.7145 11.7173 3.60154V2.60772C11.7173 2.49475 11.7622 2.38642 11.842 2.30654C11.9219 2.22667 12.0302 2.18179 12.1432 2.18179C12.2562 2.18179 12.3645 2.22667 12.4444 2.30654C12.5243 2.38642 12.5691 2.49475 12.5691 2.60772V3.60154C12.5691 3.7145 12.5243 3.82284 12.4444 3.90271C12.3645 3.98259 12.2562 4.02746 12.1432 4.02746Z" fill="#121212"/>
<path d="M12.1432 9.56451C12.0302 9.56451 11.9219 9.51964 11.842 9.43976C11.7622 9.35988 11.7173 9.25155 11.7173 9.13859V8.14477C11.7173 8.0318 11.7622 7.92347 11.842 7.84359C11.9219 7.76372 12.0302 7.71884 12.1432 7.71884C12.2562 7.71884 12.3645 7.76372 12.4444 7.84359C12.5243 7.92347 12.5691 8.0318 12.5691 8.14477V9.13859C12.5691 9.25155 12.5243 9.35988 12.4444 9.43976C12.3645 9.51964 12.2562 9.56451 12.1432 9.56451Z" fill="#121212"/>
</svg>
