<svg width="27" height="17" viewBox="0 0 27 17" fill="none" xmlns="http://www.w3.org/2000/svg">
<path d="M13.5 8.4375C11.17 8.4375 9.28125 6.5487 9.28125 4.21875C9.28125 1.8888 11.17 0 13.5 0C15.83 0 17.7188 1.8888 17.7188 4.21875C17.7188 6.5487 15.83 8.4375 13.5 8.4375Z" fill="#8D71FF"/>
<path d="M13.5 16.875C7.94137 16.875 6.75 16.2793 6.75 13.5C6.75 10.7207 7.94137 10.125 13.5 10.125C19.0586 10.125 20.25 10.7207 20.25 13.5C20.25 16.2793 19.0586 16.875 13.5 16.875Z" fill="#8D71FF"/>
<path d="M22.7812 5.0625C22.7812 3.38666 21.4449 1.6875 19.4062 1.6875C18.9403 1.6875 18.5625 2.06526 18.5625 2.53125C18.5625 2.99724 18.9403 3.375 19.4062 3.375C20.4051 3.375 21.0938 4.20709 21.0938 5.0625C21.0938 5.91791 20.4051 6.75 19.4062 6.75C18.9403 6.75 18.5625 7.12776 18.5625 7.59375C18.5625 8.05974 18.9403 8.4375 19.4062 8.4375C21.4449 8.4375 22.7812 6.73834 22.7812 5.0625Z" fill="#8D71FF"/>
<path d="M7.59375 1.6875C5.55513 1.6875 4.21875 3.38666 4.21875 5.0625C4.21875 6.73834 5.55513 8.4375 7.59375 8.4375C8.05974 8.4375 8.4375 8.05974 8.4375 7.59375C8.4375 7.12776 8.05974 6.75 7.59375 6.75C6.59487 6.75 5.90625 5.91791 5.90625 5.0625C5.90625 4.20709 6.59487 3.375 7.59375 3.375C8.05974 3.375 8.4375 2.99724 8.4375 2.53125C8.4375 2.06526 8.05974 1.6875 7.59375 1.6875Z" fill="#8D71FF"/>
<path d="M20.25 10.125C20.25 9.65901 20.6278 9.28125 21.0938 9.28125C22.0303 9.28125 22.8457 9.30378 23.5387 9.37622C24.2261 9.44807 24.8449 9.57366 25.3642 9.8079C25.9034 10.0512 26.3416 10.4153 26.6283 10.942C26.9049 11.4499 27 12.0352 27 12.6562C27 13.2807 26.9036 13.8458 26.6684 14.3336C26.4264 14.8354 26.0602 15.2077 25.6046 15.4681C24.7547 15.9537 23.6129 16.0312 22.4438 16.0312C21.9778 16.0312 21.6 15.6535 21.6 15.1875C21.6 14.7215 21.9778 14.3438 22.4438 14.3438C23.6371 14.3438 24.3516 14.2405 24.7673 14.0029C24.9445 13.9016 25.0635 13.7767 25.1484 13.6006C25.2401 13.4104 25.3125 13.1166 25.3125 12.6562C25.3125 12.1925 25.2389 11.919 25.1463 11.7489C25.0639 11.5975 24.9325 11.4644 24.6702 11.3461C24.3879 11.2188 23.9732 11.1183 23.3633 11.0546C22.759 10.9914 22.0135 10.9688 21.0938 10.9688C20.6278 10.9688 20.25 10.591 20.25 10.125Z" fill="#8D71FF"/>
<path d="M5.90625 9.28125C6.37224 9.28125 6.75 9.65901 6.75 10.125C6.75 10.591 6.37224 10.9688 5.90625 10.9688C4.98652 10.9688 4.241 10.9914 3.63674 11.0546C3.02684 11.1183 2.6121 11.2188 2.32978 11.3461C2.06749 11.4644 1.93614 11.5975 1.85373 11.7489C1.76112 11.919 1.6875 12.1925 1.6875 12.6562C1.6875 13.1166 1.75988 13.4104 1.8516 13.6006C1.93655 13.7767 2.05547 13.9016 2.23268 14.0029C2.6484 14.2405 3.36287 14.3438 4.55625 14.3438C5.02224 14.3438 5.4 14.7215 5.4 15.1875C5.4 15.6535 5.02224 16.0312 4.55625 16.0312C3.38713 16.0312 2.24535 15.9537 1.39545 15.4681C0.939847 15.2077 0.573606 14.8354 0.331602 14.3336C0.0963724 13.8458 0 13.2807 0 12.6562C0 12.0352 0.0951256 11.4499 0.371656 10.942C0.658388 10.4153 1.09657 10.0512 1.63585 9.8079C2.15509 9.57366 2.77394 9.44807 3.4613 9.37622C4.15431 9.30378 4.96973 9.28125 5.90625 9.28125Z" fill="#8D71FF"/>
</svg>
