<svg width="24" height="15" viewBox="0 0 24 15" fill="none" xmlns="http://www.w3.org/2000/svg">
<path fill-rule="evenodd" clip-rule="evenodd" d="M11.6863 14.2105C6.06554 14.2105 3.72328 13.4626 4.86084 7.10526C4.90625 6.88137 4.94995 6.66404 4.99236 6.45309C6.01264 1.37882 6.28988 0 11.6863 0C17.0828 0 17.36 1.37884 18.3803 6.4532C18.4227 6.66412 18.4664 6.88141 18.5118 7.10526C19.6494 13.4626 17.3071 14.2105 11.6863 14.2105ZM14.0547 3.55263C14.0547 3.22562 14.3198 2.96053 14.6468 2.96053C14.9739 2.96053 15.2389 3.22562 15.2389 3.55263C15.2389 4.70015 14.8027 5.60429 14.1151 6.21557C13.4383 6.81717 12.5526 7.10526 11.6863 7.10526C10.82 7.10526 9.93438 6.81717 9.25758 6.21557C8.56989 5.60429 8.13369 4.70015 8.13369 3.55263C8.13369 3.22562 8.39878 2.96053 8.72579 2.96053C9.0528 2.96053 9.3179 3.22562 9.3179 3.55263C9.3179 4.3788 9.62182 4.95492 10.0443 5.33048C10.4777 5.71573 11.0723 5.92105 11.6863 5.92105C12.3003 5.92105 12.8949 5.71573 13.3283 5.33048C13.7508 4.95492 14.0547 4.3788 14.0547 3.55263Z" fill="#6D7280"/>
<path d="M4.08105 12.0895C1.58105 12.0895 0.394682 11.5701 1.30476 6.4842C1.34108 6.30512 1.37603 6.13128 1.40996 5.96255C2.22617 1.90306 2.89824 0.799988 5.76514 0.799988" stroke="#6D7280" stroke-width="1.5" stroke-linecap="round" stroke-linejoin="round"/>
<path d="M19.2007 12.0895C21.7007 12.0895 22.8871 11.5701 21.977 6.48423C21.9407 6.30515 21.9057 6.13131 21.8718 5.96258C21.0556 1.90309 20.3835 0.800018 17.5166 0.800018" stroke="#6D7280" stroke-width="1.5" stroke-linecap="round" stroke-linejoin="round"/>
</svg>
