<svg width="26" height="26" viewBox="0 0 26 26" fill="none" xmlns="http://www.w3.org/2000/svg">
<path fill-rule="evenodd" clip-rule="evenodd" d="M13 26C2.71606 26 -1.5694 24.6316 0.511909 13C0.594984 12.5904 0.674938 12.1927 0.752543 11.8068C2.61928 2.52273 3.12652 0 13 0C22.8735 0 23.3808 2.52277 25.2475 11.807C25.3251 12.1929 25.405 12.5904 25.4881 13C27.5695 24.6316 23.2839 26 13 26ZM17.3333 6.5C17.3333 5.90169 17.8184 5.41667 18.4167 5.41667C19.015 5.41667 19.5 5.90169 19.5 6.5C19.5 8.59953 18.7019 10.2538 17.4437 11.3722C16.2054 12.4729 14.585 13 13 13C11.415 13 9.7946 12.4729 8.55631 11.3722C7.29809 10.2538 6.5 8.59953 6.5 6.5C6.5 5.90169 6.98503 5.41667 7.58333 5.41667C8.18164 5.41667 8.66667 5.90169 8.66667 6.5C8.66667 8.01158 9.22274 9.06567 9.99577 9.75281C10.7887 10.4577 11.8767 10.8333 13 10.8333C14.1233 10.8333 15.2113 10.4577 16.0042 9.75281C16.7773 9.06567 17.3333 8.01159 17.3333 6.5Z" fill="white"/>
</svg>
